<svg width="28" height="28" viewBox="0 0 28 28" fill="none" xmlns="http://www.w3.org/2000/svg">
<g id="cloudy-sun-rays-svgrepo-com 1" clip-path="url(#clip0_940_30)">
<path id="Vector" d="M16.6118 9.24499C17.3012 13.5194 14.395 17.5434 10.1206 18.2328C5.84617 18.9222 1.8222 16.016 1.13281 11.7416C0.443413 7.46715 3.34962 3.44323 7.62401 2.75384C11.8984 2.06445 15.9223 4.9706 16.6118 9.24499Z" fill="#FFFFA6"/>
<path id="Vector_2" d="M13.3511 9.74238C13.7658 12.3136 12.0176 14.7342 9.44634 15.1489C6.87509 15.5636 4.45451 13.8154 4.03981 11.2442C3.62512 8.67291 5.37332 6.25233 7.94456 5.83763C10.5158 5.42294 12.9364 7.17114 13.3511 9.74238Z" fill="#FFE954"/>
<path id="Vector_3" d="M18.7158 25.918V25.9368H6.92634C3.34523 25.9368 0.442139 23.0338 0.442139 19.4526C0.442139 15.8715 3.34523 12.9684 6.92634 12.9684C7.73511 12.9684 8.50905 13.1169 9.22305 13.3874C10.5105 9.71082 14.0102 7.07367 18.1264 7.07367C23.3353 7.07367 27.5579 11.2963 27.5579 16.5053C27.5579 21.5162 23.6501 25.6136 18.7158 25.918Z" fill="#A7E5CB"/>
<path id="Vector_4" d="M27.558 16.5053C27.558 21.5162 23.6501 25.6325 18.7159 25.9369H6.92638C4.08481 25.9369 1.67052 24.1089 0.794312 21.5649C1.73505 22.0964 2.82153 22.4 3.97899 22.4H15.7685V22.3812C20.7027 22.0768 24.6106 17.9793 24.6106 12.9685C24.6106 11.5053 24.2774 10.12 23.6828 8.88422C26.0316 10.5995 27.558 13.374 27.558 16.5053Z" fill="#93D6BB"/>
<path id="Vector_5" d="M7.87314 5.28145C9.40176 5.03377 10.9454 5.48205 12.108 6.51127C12.2909 6.67314 12.3078 6.95254 12.146 7.13536C11.9842 7.31824 11.7048 7.33525 11.5219 7.17337C10.5587 6.32068 9.28047 5.94924 8.0145 6.15427C5.68765 6.53123 4.10013 8.74017 4.47567 11.0784C4.49678 11.2099 4.52412 11.3416 4.55682 11.4695C4.61736 11.706 4.47468 11.9469 4.23821 12.0074C4.20141 12.0168 4.16455 12.0213 4.12824 12.0213C3.93114 12.0213 3.75138 11.8885 3.70025 11.6888C3.66082 11.5348 3.62801 11.3766 3.60258 11.2186C3.14999 8.39963 5.06569 5.73623 7.87314 5.28145ZM12.2331 5.47308C12.3111 5.52924 12.4014 5.55626 12.4908 5.55626C12.6283 5.55626 12.7637 5.49238 12.8501 5.37223L13.8855 3.9322C14.0281 3.73396 13.9829 3.45768 13.7847 3.31516C13.5864 3.17264 13.3102 3.21771 13.1677 3.416L12.1323 4.85609C11.9897 5.05434 12.0349 5.33056 12.2331 5.47308ZM7.22574 4.0343C7.26063 4.25163 7.44843 4.4064 7.66171 4.4064C7.68501 4.4064 7.70864 4.40459 7.73232 4.40076C7.97343 4.36204 8.13744 4.13526 8.09872 3.89419L7.81713 2.14058C7.77842 1.89946 7.5513 1.73551 7.31056 1.77417C7.06945 1.81289 6.90544 2.03968 6.94416 2.28074L7.22574 4.0343ZM1.7449 5.89866L3.17848 6.93865C3.2569 6.99553 3.34774 7.02293 3.4377 7.02293C3.57453 7.02293 3.70944 6.9596 3.7959 6.84038C3.93924 6.64274 3.89527 6.36635 3.69763 6.2229L2.26405 5.18296C2.0664 5.03962 1.79001 5.08365 1.64657 5.28123C1.50329 5.47888 1.54726 5.75532 1.7449 5.89866ZM0.546855 12.1563C0.570316 12.1563 0.594214 12.1544 0.618058 12.1505L2.36391 11.8676C2.60497 11.8286 2.7687 11.6015 2.7296 11.3605C2.69055 11.1195 2.46344 10.9557 2.22248 10.9948L0.476636 11.2777C0.235573 11.3167 0.0718385 11.5438 0.11094 11.7848C0.146214 12.0019 0.333792 12.1563 0.546855 12.1563ZM25.1149 9.3384C23.2396 7.44364 20.7576 6.4002 18.1263 6.4002C14.5388 6.4002 11.2284 8.35955 9.48669 11.5136C9.36868 11.7273 9.44628 11.9963 9.66 12.1143C9.87383 12.2324 10.1427 12.1548 10.2607 11.941C11.8468 9.06879 14.8608 7.28444 18.1264 7.28444C20.5198 7.28444 22.7785 8.2348 24.4865 9.96036C26.2067 11.6984 27.1403 13.9894 27.1154 16.4113C27.067 21.1222 23.3654 25.0395 18.6885 25.3292C18.6535 25.3314 17.9827 25.3474 17.9827 25.3474H6.92633C3.62894 25.3474 0.918567 22.6527 0.884496 19.3405C0.867817 17.717 1.4889 16.1813 2.63335 15.0165C3.76927 13.8604 5.27788 13.2172 6.88132 13.2055C7.49842 13.2004 8.13957 13.2993 8.78325 13.4978C9.14566 13.6095 9.90505 13.9867 10.1246 14.1247C11.9053 15.2433 12.9684 17.1691 12.9684 19.2763C12.9684 19.5205 13.1663 19.7184 13.4105 19.7184C13.6547 19.7184 13.8526 19.5205 13.8526 19.2763C13.8526 16.8631 12.6348 14.6574 10.595 13.376C10.333 13.2114 9.49785 12.7928 9.04372 12.6528C8.31348 12.4277 7.58411 12.3158 6.87481 12.3213C5.03468 12.3348 3.30437 13.0719 2.00258 14.3968C0.692215 15.7303 -0.0188336 17.4894 0.000252408 19.3496C0.0191743 21.1916 0.747832 22.9205 2.05186 24.2178C3.35742 25.5164 5.0885 26.2316 6.92622 26.2316H17.9531C17.9531 26.2316 18.824 26.2215 18.8727 26.2029C21.3119 26.0196 23.5815 24.94 25.276 23.1539C27.0063 21.3302 27.9734 18.9388 27.9993 16.4203C28.0269 13.7605 27.0024 11.2455 25.1149 9.3384Z" fill="black"/>
</g>
<defs>
<clipPath id="clip0_940_30">
<rect width="28" height="28" fill="white"/>
</clipPath>
</defs>
</svg>
