<svg width="36" height="36" viewBox="0 0 36 36" fill="none" xmlns="http://www.w3.org/2000/svg">
<g id="twemoji:sun-behind-cloud" clip-path="url(#clip0_940_36)">
<path id="Vector" d="M14 2C14 2 14 0 16 0C18 0 18 2 18 2V4C18 4 18 6 16 6C14 6 14 4 14 4V2ZM30 14C30 14 32 14 32 16C32 18 30 18 30 18H28C28 18 26 18 26 16C26 14 28 14 28 14H30ZM4 14C4 14 6 14 6 16C6 18 4 18 4 18H2C2 18 0 18 0 16C0 14 2 14 2 14H4ZM7.872 6.043C7.872 6.043 9.286 7.457 7.872 8.871C6.458 10.285 5.044 8.871 5.044 8.871L3.629 7.458C3.629 7.458 2.215 6.044 3.629 4.629C5.044 3.215 6.458 4.629 6.458 4.629L7.872 6.043ZM26.957 8.871C26.957 8.871 25.543 10.285 24.129 8.871C22.715 7.457 24.129 6.043 24.129 6.043L25.543 4.629C25.543 4.629 26.957 3.215 28.371 4.629C29.785 6.043 28.371 7.457 28.371 7.457L26.957 8.871Z" fill="#FFB800"/>
<path id="Vector_2" d="M16 25C20.9706 25 25 20.9706 25 16C25 11.0294 20.9706 7 16 7C11.0294 7 7 11.0294 7 16C7 20.9706 11.0294 25 16 25Z" fill="#FFB800"/>
<path id="Vector_3" d="M28 20C27.175 20 26.38 20.125 25.631 20.357C25.187 19.0847 24.3584 17.9819 23.26 17.2013C22.1615 16.4207 20.8476 16.0009 19.5 16C16.456 16 13.908 18.096 13.201 20.921C12.4259 20.3264 11.4769 20.0028 10.5 20C9.30653 20 8.16193 20.4741 7.31802 21.318C6.47411 22.1619 6 23.3065 6 24.5C6 25.104 6.123 25.678 6.339 26.204C5.90404 26.0753 5.45354 26.0067 5 26C2.238 26 0 28.238 0 31C0 33.762 2.238 36 5 36H28C30.1217 36 32.1566 35.1571 33.6569 33.6569C35.1571 32.1566 36 30.1217 36 28C36 25.8783 35.1571 23.8434 33.6569 22.3431C32.1566 20.8429 30.1217 20 28 20Z" fill="white"/>
</g>
<defs>
<clipPath id="clip0_940_36">
<rect width="36" height="36" fill="white"/>
</clipPath>
</defs>
</svg>
